<svg width="194" height="68" viewBox="0 0 194 68" fill="none" xmlns="http://www.w3.org/2000/svg">
<path d="M0 50.24V3.392H20.16C21.4827 3.392 22.6773 3.49866 23.744 3.712C24.8533 3.88266 26.0053 4.26666 27.2 4.864C28.4373 5.46133 29.4613 6.272 30.272 7.296C31.1253 8.32 31.808 9.728 32.32 11.52C32.8747 13.312 33.152 15.424 33.152 17.856C33.152 19.5627 33.024 21.1413 32.768 22.592C32.5547 24.0427 32.256 25.28 31.872 26.304C31.488 27.2853 31.0187 28.1813 30.464 28.992C29.9093 29.76 29.312 30.3787 28.672 30.848C28.032 31.2747 27.3493 31.6587 26.624 32C25.8987 32.3413 25.1733 32.576 24.448 32.704C23.7227 32.7893 22.9973 32.8747 22.272 32.96C21.5467 33.0027 20.8427 33.0027 20.16 32.96C18.9227 32.8747 16.7893 32.6613 13.76 32.32C10.7307 31.9787 9.13067 31.7653 8.96 31.68V50.24H0ZM8.96 25.024H19.456C20.992 25.024 22.144 24.512 22.912 23.488C23.7227 22.464 24.128 20.608 24.128 17.92C24.0853 13.5253 22.528 11.328 19.456 11.328H8.96V25.024Z" fill="black"/>
<path d="M37.604 33.728C37.604 30.2293 37.86 27.3493 38.372 25.088C38.884 22.8267 39.78 21.0133 41.06 19.648C42.34 18.2827 43.9187 17.3227 45.796 16.768C47.716 16.2133 50.148 15.936 53.092 15.936C58.9373 15.936 62.9693 17.216 65.188 19.776C67.4493 22.336 68.58 26.9867 68.58 33.728C68.58 40.0853 67.4707 44.48 65.252 46.912C63.076 49.344 59.0227 50.56 53.092 50.56C50.7453 50.56 48.6973 50.368 46.948 49.984C45.2413 49.5573 43.7693 48.9387 42.532 48.128C41.3373 47.3173 40.3773 46.2507 39.652 44.928C38.9267 43.5627 38.3933 41.984 38.052 40.192C37.7533 38.3573 37.604 36.2027 37.604 33.728ZM46.564 33.728C46.564 35.904 46.6707 37.632 46.884 38.912C47.0973 40.192 47.4813 41.1733 48.036 41.856C48.6333 42.496 49.2947 42.9013 50.02 43.072C50.7453 43.2427 51.7693 43.328 53.092 43.328C54.244 43.328 55.1187 43.2853 55.716 43.2C56.356 43.1147 56.9533 42.9013 57.508 42.56C58.1053 42.2187 58.532 41.6853 58.788 40.96C59.0867 40.2347 59.3 39.3173 59.428 38.208C59.556 37.056 59.62 35.5627 59.62 33.728C59.62 31.7653 59.556 30.1867 59.428 28.992C59.3427 27.7547 59.172 26.7307 58.916 25.92C58.66 25.0667 58.2547 24.4693 57.7 24.128C57.1453 23.744 56.5267 23.488 55.844 23.36C55.1613 23.1893 54.244 23.104 53.092 23.104C52.1533 23.104 51.3853 23.1467 50.788 23.232C50.1907 23.3173 49.6147 23.5093 49.06 23.808C48.5053 24.064 48.0787 24.4267 47.78 24.896C47.524 25.3227 47.2893 25.9413 47.076 26.752C46.8627 27.5627 46.7133 28.5227 46.628 29.632C46.5853 30.7413 46.564 32.1067 46.564 33.728Z" fill="black"/>
<path d="M73.9285 67.52V16.256H81.2885L82.8245 19.648C84.0618 18.6667 85.6192 17.792 87.4965 17.024C89.4165 16.256 91.2938 15.872 93.1285 15.872C94.7925 15.872 96.2432 16.1493 97.4805 16.704C98.7605 17.2587 99.8058 18.0267 100.617 19.008C101.47 19.9893 102.174 21.2053 102.729 22.656C103.283 24.1067 103.667 25.6853 103.881 27.392C104.094 29.0987 104.201 30.9973 104.201 33.088C104.201 34.8373 104.136 36.416 104.008 37.824C103.923 39.232 103.731 40.64 103.433 42.048C103.134 43.4133 102.707 44.608 102.153 45.632C101.641 46.656 100.979 47.5733 100.169 48.384C99.4005 49.152 98.4192 49.7493 97.2245 50.176C96.0298 50.56 94.6645 50.752 93.1285 50.752C91.5925 50.752 89.8645 50.56 87.9445 50.176C86.0245 49.7493 84.3178 49.216 82.8245 48.576V67.52H73.9285ZM82.8245 42.432C85.0432 43.2853 87.7098 43.712 90.8245 43.712C91.8485 43.712 92.6592 43.4773 93.2565 43.008C93.8538 42.496 94.3232 41.472 94.6645 39.936C95.0485 38.4 95.2405 36.2453 95.2405 33.472C95.2405 29.8027 94.8778 27.2427 94.1525 25.792C93.4272 24.2987 92.3178 23.552 90.8245 23.552C87.6672 23.552 85.0005 24.2347 82.8245 25.6V42.432Z" fill="black"/>
<path d="M108.979 33.408C108.979 31.0613 109.064 29.056 109.235 27.392C109.406 25.6853 109.726 24.064 110.195 22.528C110.664 20.992 111.304 19.7547 112.115 18.816C112.926 17.8773 113.992 17.1307 115.315 16.576C116.638 16.0213 118.216 15.744 120.051 15.744C121.032 15.744 122.12 15.8293 123.315 16C124.51 16.1707 125.726 16.4267 126.963 16.768C128.243 17.1093 129.374 17.5147 130.355 17.984V0H139.315V50.24H131.891L130.355 46.784C129.118 47.808 127.56 48.704 125.683 49.472C123.806 50.24 121.928 50.624 120.051 50.624C119.24 50.624 118.472 50.56 117.747 50.432C117.022 50.304 116.339 50.112 115.699 49.856C115.102 49.6 114.526 49.3013 113.971 48.96C113.459 48.576 112.99 48.128 112.563 47.616C112.136 47.104 111.731 46.5707 111.347 46.016C111.006 45.4187 110.707 44.7787 110.451 44.096C110.195 43.3707 109.96 42.624 109.747 41.856C109.576 41.0453 109.427 40.192 109.299 39.296C109.214 38.3573 109.128 37.4187 109.043 36.48C109 35.4987 108.979 34.4747 108.979 33.408ZM117.939 33.088C117.939 36.7147 118.302 39.2747 119.027 40.768C119.752 42.2187 120.883 42.944 122.419 42.944C123.998 42.944 125.448 42.7733 126.771 42.432C128.136 42.048 129.331 41.536 130.355 40.896V24.064C129.758 23.808 129.139 23.616 128.499 23.488C127.902 23.3173 127.283 23.1893 126.643 23.104C126.003 22.976 125.32 22.8907 124.595 22.848C123.912 22.8053 123.187 22.784 122.419 22.784C121.779 22.784 121.246 22.8693 120.819 23.04C120.392 23.168 119.987 23.4667 119.603 23.936C119.219 24.3627 118.899 24.96 118.643 25.728C118.43 26.4533 118.259 27.4347 118.131 28.672C118.003 29.8667 117.939 31.3387 117.939 33.088Z" fill="black"/>
<path d="M145.053 38.144V0.127998H154.014V36.736C154.014 38.9973 154.248 40.576 154.717 41.472C155.187 42.368 155.934 43.008 156.958 43.392C159.518 44.288 160.947 44.736 161.245 44.736V50.24H153.822C152.413 50.24 151.176 50.0267 150.109 49.6C149.043 49.1733 148.126 48.512 147.357 47.616C146.589 46.6773 146.014 45.4187 145.63 43.84C145.245 42.2613 145.053 40.3627 145.053 38.144Z" fill="black"/>
<path d="M164.604 33.088C164.604 30.144 164.775 27.6907 165.116 25.728C165.5 23.7227 166.033 22.08 166.716 20.8C167.399 19.4773 168.359 18.4747 169.596 17.792C170.833 17.1093 172.199 16.64 173.692 16.384C175.228 16.128 177.148 16 179.452 16C180.988 16 182.289 16.0427 183.356 16.128C184.423 16.1707 185.489 16.2987 186.556 16.512C187.665 16.6827 188.561 16.96 189.244 17.344C189.927 17.6853 190.588 18.176 191.228 18.816C191.868 19.4133 192.359 20.16 192.7 21.056C193.084 21.9093 193.361 22.9547 193.532 24.192C193.745 25.3867 193.852 26.7733 193.852 28.352C193.852 31.3387 193.063 33.5147 191.484 34.88C189.905 36.2453 187.537 36.928 184.38 36.928H173.564C173.564 38.8907 173.841 40.3627 174.396 41.344C174.993 42.2827 175.719 42.8587 176.572 43.072C177.468 43.2853 178.855 43.392 180.732 43.392C185.98 43.392 190.14 43.1573 193.212 42.688V48.768C190.012 49.9627 184.209 50.56 175.804 50.56C173.628 50.56 171.815 50.24 170.364 49.6C168.956 48.96 167.825 47.9147 166.972 46.464C166.119 45.0133 165.5 43.2213 165.116 41.088C164.775 38.9547 164.604 36.288 164.604 33.088ZM173.564 30.464H182.076C183.953 30.464 184.892 29.6107 184.892 27.904C184.892 25.7707 184.593 24.4053 183.996 23.808C183.441 23.168 182.097 22.848 179.964 22.848C178.599 22.848 177.575 22.912 176.892 23.04C176.252 23.1253 175.612 23.424 174.972 23.936C174.375 24.4053 173.969 25.152 173.756 26.176C173.585 27.2 173.521 28.6293 173.564 30.464Z" fill="black"/>
</svg>
